<svg width="231" height="44" viewBox="0 0 231 44" fill="none" xmlns="http://www.w3.org/2000/svg">
<g filter="url(#filter0_d_81_5)">
<path d="M30.6367 23.2461C30.2852 25.0299 29.8359 26.5013 29.2891 27.6602C28.7422 28.806 28.1888 29.7109 27.6289 30.375C27.069 31.0391 26.5417 31.5013 26.0469 31.7617C25.5651 32.0221 25.2005 32.1523 24.9531 32.1523C24.5625 32.1523 24.0612 31.9831 23.4492 31.6445C22.8372 31.306 22.1602 30.8698 21.418 30.3359C20.6888 29.8021 19.9271 29.2031 19.1328 28.5391C18.3516 27.862 17.5964 27.1914 16.8672 26.5273C16.138 25.8633 15.4674 25.2383 14.8555 24.6523C14.2435 24.0664 13.7487 23.5846 13.3711 23.207L13.5273 28.0312L17.6484 30.3164L5.24609 31.1953L9.40625 27.3672L10.1289 7.71875L5.05078 5.27734C7.58984 5.13411 9.74479 5.02995 11.5156 4.96484C13.2865 4.88672 14.7513 4.83464 15.9102 4.80859C17.069 4.78255 17.9609 4.76953 18.5859 4.76953C19.2109 4.76953 19.6536 4.76953 19.9141 4.76953C20.474 4.76953 21.0794 4.82161 21.7305 4.92578C22.3945 5.01693 23.0521 5.17969 23.7031 5.41406C24.3542 5.63542 24.9857 5.92188 25.5977 6.27344C26.2096 6.625 26.75 7.05469 27.2188 7.5625C27.6875 8.07031 28.0586 8.66276 28.332 9.33984C28.6185 10.0039 28.7617 10.7591 28.7617 11.6055C28.7617 11.8008 28.7357 12.0742 28.6836 12.4258C28.6445 12.7643 28.5534 13.1615 28.4102 13.6172C28.2669 14.0599 28.0521 14.5352 27.7656 15.043C27.4792 15.5378 27.0885 16.0391 26.5938 16.5469C26.112 17.0417 25.513 17.5234 24.7969 17.9922C24.0807 18.4609 23.2148 18.8776 22.1992 19.2422C21.1966 19.6068 20.0247 19.9062 18.6836 20.1406C17.3555 20.362 15.832 20.4857 14.1133 20.5117C14.9596 21.1497 15.8776 21.8333 16.8672 22.5625C17.8568 23.2786 18.8594 23.9427 19.875 24.5547C20.8906 25.1536 21.8867 25.6549 22.8633 26.0586C23.8398 26.4492 24.7513 26.6445 25.5977 26.6445C26.0013 26.6445 26.431 26.599 26.8867 26.5078C27.3555 26.4167 27.8112 26.2474 28.2539 26C28.7096 25.7396 29.1393 25.3945 29.543 24.9648C29.9596 24.5221 30.3242 23.9492 30.6367 23.2461ZM23.1172 12.5234C23.1172 12.1198 23.0846 11.7161 23.0195 11.3125C22.9544 10.9089 22.8177 10.5247 22.6094 10.1602C22.401 9.79557 22.1016 9.45052 21.7109 9.125C21.3203 8.79948 20.793 8.51953 20.1289 8.28516C19.4779 8.05078 18.6706 7.86849 17.707 7.73828C16.7435 7.59505 15.5911 7.52344 14.25 7.52344C14.0417 7.52344 13.8398 7.52344 13.6445 7.52344C13.4492 7.52344 13.2474 7.53646 13.0391 7.5625L13.2344 17.9922C14.0547 17.9792 14.8685 17.9141 15.6758 17.7969C16.4831 17.6667 17.2513 17.4909 17.9805 17.2695C18.7096 17.0482 19.3867 16.7812 20.0117 16.4688C20.6497 16.1562 21.1966 15.8047 21.6523 15.4141C22.1081 15.0104 22.4661 14.5677 22.7266 14.0859C22.987 13.6042 23.1172 13.0833 23.1172 12.5234ZM51.9648 30.2773L29.9531 31.1562L34.8359 26.1562L36.2031 8.16797L30.3242 5.27734L51.2422 3.79297L51.5938 12.9531L47.9609 6.44922L39.0352 7.875L39.3281 17.1133L41.3594 16.8398L45.4023 11.4883L45.6758 23.793L42.1602 18.7539L39.3672 19.1641L39.6016 27.2305L48.3516 28.0312L51.6328 19.8477L51.9648 30.2773ZM58.9961 31.1562C56.9518 31.1562 54.875 31 52.7656 30.6875L58.0781 28.2461L59.875 8.07031L53.8398 5.35547C55.1029 5.06901 56.3854 4.84766 57.6875 4.69141C58.9896 4.52214 60.1875 4.39844 61.2812 4.32031C62.5443 4.22917 63.7747 4.17708 64.9727 4.16406C65.8581 4.16406 66.7695 4.26823 67.707 4.47656C68.6576 4.6849 69.582 5.01693 70.4805 5.47266C71.3789 5.91536 72.2253 6.48828 73.0195 7.19141C73.8138 7.89453 74.5039 8.73438 75.0898 9.71094C75.6888 10.6875 76.1641 11.8138 76.5156 13.0898C76.8672 14.3529 77.043 15.7786 77.043 17.3672C77.043 19.125 76.7891 20.6875 76.2812 22.0547C75.7734 23.4219 75.0768 24.6133 74.1914 25.6289C73.319 26.6445 72.2969 27.5104 71.125 28.2266C69.9531 28.9297 68.6966 29.4961 67.3555 29.9258C66.0143 30.3555 64.6276 30.668 63.1953 30.8633C61.776 31.0586 60.3763 31.1562 58.9961 31.1562ZM72.4922 16.6055C72.4922 15.9414 72.4401 15.2318 72.3359 14.4766C72.2448 13.7214 72.082 12.9727 71.8477 12.2305C71.6133 11.4883 71.3008 10.7786 70.9102 10.1016C70.5195 9.41146 70.0312 8.80599 69.4453 8.28516C68.8724 7.76432 68.1888 7.34766 67.3945 7.03516C66.6003 6.72266 65.6823 6.56641 64.6406 6.56641C64.0938 6.56641 63.5208 6.60547 62.9219 6.68359V28.5586C64.6927 28.3112 66.1836 27.849 67.3945 27.1719C68.6185 26.4948 69.6081 25.6419 70.3633 24.6133C71.1185 23.5716 71.6589 22.3802 71.9844 21.0391C72.3229 19.6849 72.4922 18.207 72.4922 16.6055ZM111.379 4.4375L109.855 15.8828L107.609 7.52344L101.613 8.20703L102.414 27.7188L107.258 30.1992L91.6523 31.6836L97.3359 27.5625L98.332 8.40234L92.1406 8.16797L89.7383 15.2773L88.9766 4.76953L111.379 4.4375ZM133.176 30.2773L111.164 31.1562L116.047 26.1562L117.414 8.16797L111.535 5.27734L132.453 3.79297L132.805 12.9531L129.172 6.44922L120.246 7.875L120.539 17.1133L122.57 16.8398L126.613 11.4883L126.887 23.793L123.371 18.7539L120.578 19.1641L120.812 27.2305L129.562 28.0312L132.844 19.8477L133.176 30.2773ZM158.176 4.4375L156.652 15.8828L154.406 7.52344L148.41 8.20703L149.211 27.7188L154.055 30.1992L138.449 31.6836L144.133 27.5625L145.129 8.40234L138.938 8.16797L136.535 15.2773L135.773 4.76953L158.176 4.4375ZM183.684 23.2461C183.332 25.0299 182.883 26.5013 182.336 27.6602C181.789 28.806 181.236 29.7109 180.676 30.375C180.116 31.0391 179.589 31.5013 179.094 31.7617C178.612 32.0221 178.247 32.1523 178 32.1523C177.609 32.1523 177.108 31.9831 176.496 31.6445C175.884 31.306 175.207 30.8698 174.465 30.3359C173.736 29.8021 172.974 29.2031 172.18 28.5391C171.398 27.862 170.643 27.1914 169.914 26.5273C169.185 25.8633 168.514 25.2383 167.902 24.6523C167.29 24.0664 166.796 23.5846 166.418 23.207L166.574 28.0312L170.695 30.3164L158.293 31.1953L162.453 27.3672L163.176 7.71875L158.098 5.27734C160.637 5.13411 162.792 5.02995 164.562 4.96484C166.333 4.88672 167.798 4.83464 168.957 4.80859C170.116 4.78255 171.008 4.76953 171.633 4.76953C172.258 4.76953 172.701 4.76953 172.961 4.76953C173.521 4.76953 174.126 4.82161 174.777 4.92578C175.441 5.01693 176.099 5.17969 176.75 5.41406C177.401 5.63542 178.033 5.92188 178.645 6.27344C179.257 6.625 179.797 7.05469 180.266 7.5625C180.734 8.07031 181.105 8.66276 181.379 9.33984C181.665 10.0039 181.809 10.7591 181.809 11.6055C181.809 11.8008 181.783 12.0742 181.73 12.4258C181.691 12.7643 181.6 13.1615 181.457 13.6172C181.314 14.0599 181.099 14.5352 180.812 15.043C180.526 15.5378 180.135 16.0391 179.641 16.5469C179.159 17.0417 178.56 17.5234 177.844 17.9922C177.128 18.4609 176.262 18.8776 175.246 19.2422C174.243 19.6068 173.072 19.9062 171.73 20.1406C170.402 20.362 168.879 20.4857 167.16 20.5117C168.007 21.1497 168.924 21.8333 169.914 22.5625C170.904 23.2786 171.906 23.9427 172.922 24.5547C173.938 25.1536 174.934 25.6549 175.91 26.0586C176.887 26.4492 177.798 26.6445 178.645 26.6445C179.048 26.6445 179.478 26.599 179.934 26.5078C180.402 26.4167 180.858 26.2474 181.301 26C181.757 25.7396 182.186 25.3945 182.59 24.9648C183.007 24.5221 183.371 23.9492 183.684 23.2461ZM176.164 12.5234C176.164 12.1198 176.132 11.7161 176.066 11.3125C176.001 10.9089 175.865 10.5247 175.656 10.1602C175.448 9.79557 175.148 9.45052 174.758 9.125C174.367 8.79948 173.84 8.51953 173.176 8.28516C172.525 8.05078 171.717 7.86849 170.754 7.73828C169.79 7.59505 168.638 7.52344 167.297 7.52344C167.089 7.52344 166.887 7.52344 166.691 7.52344C166.496 7.52344 166.294 7.53646 166.086 7.5625L166.281 17.9922C167.102 17.9792 167.915 17.9141 168.723 17.7969C169.53 17.6667 170.298 17.4909 171.027 17.2695C171.757 17.0482 172.434 16.7812 173.059 16.4688C173.697 16.1562 174.243 15.8047 174.699 15.4141C175.155 15.0104 175.513 14.5677 175.773 14.0859C176.034 13.6042 176.164 13.0833 176.164 12.5234ZM192.121 9.76953L192.688 27.4453L196.73 30.2773L182.883 31.4883L187.648 27.5234L188.84 8.59766L184.758 5.39453L196.652 6.11719L192.121 9.76953ZM207.805 4.55469C208.69 4.55469 209.536 4.63932 210.344 4.80859C211.164 4.96484 211.926 5.17969 212.629 5.45312C213.332 5.71354 213.97 6.01302 214.543 6.35156C215.116 6.6901 215.604 7.02865 216.008 7.36719L221.086 3.87109L215.246 15.082L214.797 9.20312C214.419 8.94271 214.009 8.71484 213.566 8.51953C213.137 8.3112 212.701 8.14193 212.258 8.01172C211.828 7.86849 211.411 7.75781 211.008 7.67969C210.604 7.58854 210.246 7.51693 209.934 7.46484C209.621 7.41276 209.367 7.38021 209.172 7.36719C208.99 7.34115 208.892 7.32812 208.879 7.32812C207.993 7.32812 207.251 7.42578 206.652 7.62109C206.053 7.81641 205.565 8.07031 205.188 8.38281C204.823 8.69531 204.556 9.05339 204.387 9.45703C204.23 9.84766 204.152 10.2448 204.152 10.6484C204.152 11.4688 204.322 12.1654 204.66 12.7383C204.999 13.2982 205.513 13.7995 206.203 14.2422C206.893 14.6849 207.772 15.1016 208.84 15.4922C209.908 15.8698 211.164 16.2799 212.609 16.7227C213.482 16.9961 214.302 17.3672 215.07 17.8359C215.852 18.2917 216.529 18.832 217.102 19.457C217.674 20.069 218.124 20.7591 218.449 21.5273C218.788 22.2826 218.957 23.0964 218.957 23.9688C218.957 24.9844 218.814 25.8893 218.527 26.6836C218.241 27.4648 217.857 28.1549 217.375 28.7539C216.906 29.3398 216.359 29.8411 215.734 30.2578C215.109 30.6615 214.458 30.987 213.781 31.2344C213.117 31.4948 212.44 31.6771 211.75 31.7812C211.073 31.8984 210.435 31.957 209.836 31.957C208.078 31.957 206.483 31.6576 205.051 31.0586C203.618 30.4596 202.284 29.6393 201.047 28.5977L195.969 32.0742L201.633 22.0352C201.789 22.9727 202.062 23.8776 202.453 24.75C202.857 25.6094 203.352 26.3776 203.938 27.0547C204.523 27.7318 205.201 28.2721 205.969 28.6758C206.737 29.0794 207.577 29.2812 208.488 29.2812C209.217 29.2812 209.882 29.1706 210.48 28.9492C211.092 28.7279 211.613 28.4349 212.043 28.0703C212.473 27.6927 212.805 27.263 213.039 26.7812C213.286 26.2865 213.41 25.7721 213.41 25.2383C213.41 24.4961 213.202 23.8581 212.785 23.3242C212.368 22.7773 211.822 22.2956 211.145 21.8789C210.467 21.4492 209.693 21.0586 208.82 20.707C207.961 20.3424 207.076 19.9714 206.164 19.5938C205.253 19.2161 204.361 18.7995 203.488 18.3438C202.629 17.888 201.861 17.3542 201.184 16.7422C200.507 16.1172 199.96 15.388 199.543 14.5547C199.126 13.7214 198.918 12.7383 198.918 11.6055C198.918 10.7331 199.087 9.88021 199.426 9.04688C199.777 8.20052 200.311 7.44531 201.027 6.78125C201.757 6.11719 202.681 5.58333 203.801 5.17969C204.921 4.76302 206.255 4.55469 207.805 4.55469Z" fill="#2D9CDB"/>
</g>
<defs>
<filter id="filter0_d_81_5" x="0.0507812" y="0.792969" width="230.035" height="42.3594" filterUnits="userSpaceOnUse" color-interpolation-filters="sRGB">
<feFlood flood-opacity="0" result="BackgroundImageFix"/>
<feColorMatrix in="SourceAlpha" type="matrix" values="0 0 0 0 0 0 0 0 0 0 0 0 0 0 0 0 0 0 127 0" result="hardAlpha"/>
<feOffset dx="2" dy="4"/>
<feGaussianBlur stdDeviation="3.5"/>
<feComposite in2="hardAlpha" operator="out"/>
<feColorMatrix type="matrix" values="0 0 0 0 0 0 0 0 0 0 0 0 0 0 0 0 0 0 0.49 0"/>
<feBlend mode="normal" in2="BackgroundImageFix" result="effect1_dropShadow_81_5"/>
<feBlend mode="normal" in="SourceGraphic" in2="effect1_dropShadow_81_5" result="shape"/>
</filter>
</defs>
</svg>
