<svg width="147" height="44" viewBox="0 0 147 44" fill="none" xmlns="http://www.w3.org/2000/svg">
<g filter="url(#filter0_d_84_11)">
<path d="M28.0508 4.4375L26.5273 15.8828L24.2812 7.52344L18.2852 8.20703L19.0859 27.7188L23.9297 30.1992L8.32422 31.6836L14.0078 27.5625L15.0039 8.40234L8.8125 8.16797L6.41016 15.2773L5.64844 4.76953L28.0508 4.4375ZM49.8477 30.2773L27.8359 31.1562L32.7188 26.1562L34.0859 8.16797L28.207 5.27734L49.125 3.79297L49.4766 12.9531L45.8438 6.44922L36.918 7.875L37.2109 17.1133L39.2422 16.8398L43.2852 11.4883L43.5586 23.793L40.043 18.7539L37.25 19.1641L37.4844 27.2305L46.2344 28.0312L49.5156 19.8477L49.8477 30.2773ZM74.8477 4.4375L73.3242 15.8828L71.0781 7.52344L65.082 8.20703L65.8828 27.7188L70.7266 30.1992L55.1211 31.6836L60.8047 27.5625L61.8008 8.40234L55.6094 8.16797L53.207 15.2773L52.4453 4.76953L74.8477 4.4375ZM100.355 23.2461C100.004 25.0299 99.5547 26.5013 99.0078 27.6602C98.4609 28.806 97.9076 29.7109 97.3477 30.375C96.7878 31.0391 96.2604 31.5013 95.7656 31.7617C95.2839 32.0221 94.9193 32.1523 94.6719 32.1523C94.2812 32.1523 93.7799 31.9831 93.168 31.6445C92.556 31.306 91.8789 30.8698 91.1367 30.3359C90.4076 29.8021 89.6458 29.2031 88.8516 28.5391C88.0703 27.862 87.3151 27.1914 86.5859 26.5273C85.8568 25.8633 85.1862 25.2383 84.5742 24.6523C83.9622 24.0664 83.4674 23.5846 83.0898 23.207L83.2461 28.0312L87.3672 30.3164L74.9648 31.1953L79.125 27.3672L79.8477 7.71875L74.7695 5.27734C77.3086 5.13411 79.4635 5.02995 81.2344 4.96484C83.0052 4.88672 84.4701 4.83464 85.6289 4.80859C86.7878 4.78255 87.6797 4.76953 88.3047 4.76953C88.9297 4.76953 89.3724 4.76953 89.6328 4.76953C90.1927 4.76953 90.7982 4.82161 91.4492 4.92578C92.1133 5.01693 92.7708 5.17969 93.4219 5.41406C94.0729 5.63542 94.7044 5.92188 95.3164 6.27344C95.9284 6.625 96.4688 7.05469 96.9375 7.5625C97.4062 8.07031 97.7773 8.66276 98.0508 9.33984C98.3372 10.0039 98.4805 10.7591 98.4805 11.6055C98.4805 11.8008 98.4544 12.0742 98.4023 12.4258C98.3633 12.7643 98.2721 13.1615 98.1289 13.6172C97.9857 14.0599 97.7708 14.5352 97.4844 15.043C97.1979 15.5378 96.8073 16.0391 96.3125 16.5469C95.8307 17.0417 95.2318 17.5234 94.5156 17.9922C93.7995 18.4609 92.9336 18.8776 91.918 19.2422C90.9154 19.6068 89.7435 19.9062 88.4023 20.1406C87.0742 20.362 85.5508 20.4857 83.832 20.5117C84.6784 21.1497 85.5964 21.8333 86.5859 22.5625C87.5755 23.2786 88.5781 23.9427 89.5938 24.5547C90.6094 25.1536 91.6055 25.6549 92.582 26.0586C93.5586 26.4492 94.4701 26.6445 95.3164 26.6445C95.7201 26.6445 96.1497 26.599 96.6055 26.5078C97.0742 26.4167 97.5299 26.2474 97.9727 26C98.4284 25.7396 98.8581 25.3945 99.2617 24.9648C99.6784 24.5221 100.043 23.9492 100.355 23.2461ZM92.8359 12.5234C92.8359 12.1198 92.8034 11.7161 92.7383 11.3125C92.6732 10.9089 92.5365 10.5247 92.3281 10.1602C92.1198 9.79557 91.8203 9.45052 91.4297 9.125C91.0391 8.79948 90.5117 8.51953 89.8477 8.28516C89.1966 8.05078 88.3893 7.86849 87.4258 7.73828C86.4622 7.59505 85.3099 7.52344 83.9688 7.52344C83.7604 7.52344 83.5586 7.52344 83.3633 7.52344C83.168 7.52344 82.9661 7.53646 82.7578 7.5625L82.9531 17.9922C83.7734 17.9792 84.5872 17.9141 85.3945 17.7969C86.2018 17.6667 86.9701 17.4909 87.6992 17.2695C88.4284 17.0482 89.1055 16.7812 89.7305 16.4688C90.3685 16.1562 90.9154 15.8047 91.3711 15.4141C91.8268 15.0104 92.1849 14.5677 92.4453 14.0859C92.7057 13.6042 92.8359 13.0833 92.8359 12.5234ZM108.793 9.76953L109.359 27.4453L113.402 30.2773L99.5547 31.4883L104.32 27.5234L105.512 8.59766L101.43 5.39453L113.324 6.11719L108.793 9.76953ZM124.477 4.55469C125.362 4.55469 126.208 4.63932 127.016 4.80859C127.836 4.96484 128.598 5.17969 129.301 5.45312C130.004 5.71354 130.642 6.01302 131.215 6.35156C131.788 6.6901 132.276 7.02865 132.68 7.36719L137.758 3.87109L131.918 15.082L131.469 9.20312C131.091 8.94271 130.681 8.71484 130.238 8.51953C129.809 8.3112 129.372 8.14193 128.93 8.01172C128.5 7.86849 128.083 7.75781 127.68 7.67969C127.276 7.58854 126.918 7.51693 126.605 7.46484C126.293 7.41276 126.039 7.38021 125.844 7.36719C125.661 7.34115 125.564 7.32812 125.551 7.32812C124.665 7.32812 123.923 7.42578 123.324 7.62109C122.725 7.81641 122.237 8.07031 121.859 8.38281C121.495 8.69531 121.228 9.05339 121.059 9.45703C120.902 9.84766 120.824 10.2448 120.824 10.6484C120.824 11.4688 120.993 12.1654 121.332 12.7383C121.671 13.2982 122.185 13.7995 122.875 14.2422C123.565 14.6849 124.444 15.1016 125.512 15.4922C126.579 15.8698 127.836 16.2799 129.281 16.7227C130.154 16.9961 130.974 17.3672 131.742 17.8359C132.523 18.2917 133.201 18.832 133.773 19.457C134.346 20.069 134.796 20.7591 135.121 21.5273C135.46 22.2826 135.629 23.0964 135.629 23.9688C135.629 24.9844 135.486 25.8893 135.199 26.6836C134.913 27.4648 134.529 28.1549 134.047 28.7539C133.578 29.3398 133.031 29.8411 132.406 30.2578C131.781 30.6615 131.13 30.987 130.453 31.2344C129.789 31.4948 129.112 31.6771 128.422 31.7812C127.745 31.8984 127.107 31.957 126.508 31.957C124.75 31.957 123.155 31.6576 121.723 31.0586C120.29 30.4596 118.956 29.6393 117.719 28.5977L112.641 32.0742L118.305 22.0352C118.461 22.9727 118.734 23.8776 119.125 24.75C119.529 25.6094 120.023 26.3776 120.609 27.0547C121.195 27.7318 121.872 28.2721 122.641 28.6758C123.409 29.0794 124.249 29.2812 125.16 29.2812C125.889 29.2812 126.553 29.1706 127.152 28.9492C127.764 28.7279 128.285 28.4349 128.715 28.0703C129.145 27.6927 129.477 27.263 129.711 26.7812C129.958 26.2865 130.082 25.7721 130.082 25.2383C130.082 24.4961 129.874 23.8581 129.457 23.3242C129.04 22.7773 128.493 22.2956 127.816 21.8789C127.139 21.4492 126.365 21.0586 125.492 20.707C124.633 20.3424 123.747 19.9714 122.836 19.5938C121.924 19.2161 121.033 18.7995 120.16 18.3438C119.301 17.888 118.533 17.3542 117.855 16.7422C117.178 16.1172 116.632 15.388 116.215 14.5547C115.798 13.7214 115.59 12.7383 115.59 11.6055C115.59 10.7331 115.759 9.88021 116.098 9.04688C116.449 8.20052 116.983 7.44531 117.699 6.78125C118.428 6.11719 119.353 5.58333 120.473 5.17969C121.592 4.76302 122.927 4.55469 124.477 4.55469Z" fill="#2D9CDB"/>
</g>
<defs>
<filter id="filter0_d_84_11" x="0.648438" y="0.792969" width="146.109" height="42.3594" filterUnits="userSpaceOnUse" color-interpolation-filters="sRGB">
<feFlood flood-opacity="0" result="BackgroundImageFix"/>
<feColorMatrix in="SourceAlpha" type="matrix" values="0 0 0 0 0 0 0 0 0 0 0 0 0 0 0 0 0 0 127 0" result="hardAlpha"/>
<feOffset dx="2" dy="4"/>
<feGaussianBlur stdDeviation="3.5"/>
<feComposite in2="hardAlpha" operator="out"/>
<feColorMatrix type="matrix" values="0 0 0 0 0 0 0 0 0 0 0 0 0 0 0 0 0 0 0.49 0"/>
<feBlend mode="normal" in2="BackgroundImageFix" result="effect1_dropShadow_84_11"/>
<feBlend mode="normal" in="SourceGraphic" in2="effect1_dropShadow_84_11" result="shape"/>
</filter>
</defs>
</svg>
