<svg viewBox="0 0 1440 160" fill="none" xmlns="http://www.w3.org/2000/svg">
<path d="M0 -0.5H-0.5V0V97.1682V97.6316L-0.0379657 97.6668L0 97.1682C-0.0379657 97.6668 -0.037632 97.6668 -0.0369905 97.6669L-0.0341672 97.6671L-0.0230006 97.6679L0.021244 97.6713L0.196027 97.6844C0.350386 97.6959 0.579735 97.7128 0.879954 97.7347C1.48039 97.7784 2.36431 97.8417 3.49875 97.9201C5.76762 98.0768 9.03865 98.2937 13.0481 98.5348C21.0668 99.0168 32.0403 99.5954 43.8587 99.9811C55.6762 100.367 68.343 100.56 79.7471 100.27C91.1412 99.9811 101.309 99.2097 108.111 97.6557C121.63 94.5673 128.319 93.0421 135.625 93.0421C142.941 93.0421 150.885 94.5711 166.905 97.6592C181.527 100.478 189.337 98.666 197.385 96.7987C198.205 96.6086 199.027 96.4178 199.859 96.2313C208.791 94.2296 218.964 92.6897 239.885 97.6547C260.898 102.642 271.452 104.113 283.147 103.593C288.985 103.333 295.099 102.578 302.926 101.526C304.216 101.352 305.553 101.171 306.943 100.982C313.992 100.025 322.412 98.8822 333.057 97.665C337.753 97.128 341.981 96.634 345.827 96.1846C362.884 94.1915 372.421 93.0771 381.879 92.9962C393.462 92.8972 404.923 94.3489 429.934 97.6639C434.255 98.2365 438.166 98.7639 441.733 99.245C458.786 101.545 467.986 102.785 476.497 102.841C486.378 102.907 495.336 101.376 514.554 98.0932C515.378 97.9524 516.221 97.8084 517.084 97.6611C518.864 97.3574 520.556 97.0673 522.171 96.7906C539.629 93.7983 547.905 92.3799 557.123 92.4182C565.549 92.4532 574.757 93.7052 592.455 96.1116C595.934 96.5845 599.74 97.1021 603.934 97.6638C629.347 101.068 643.125 102.617 655.51 102.544C667.892 102.471 678.871 100.778 698.663 97.7262L698.697 97.7208L699.076 97.6624C699.903 97.5348 700.721 97.4086 701.529 97.2839C720.264 94.3912 733.966 92.2756 749.387 91.9169C765.468 91.5429 783.434 93.08 810.918 97.6614C812.573 97.9374 814.178 98.2054 815.735 98.4653C840.014 102.519 852.575 104.616 862.373 104.648C872.797 104.683 880.104 102.382 894.969 97.7023L895.15 97.6452C923.866 88.6041 939.657 90.6462 987.917 96.8867C989.87 97.1391 991.875 97.3984 993.936 97.6641C1020.43 101.079 1036.46 103.042 1053.12 103.167C1069.78 103.292 1087.06 101.58 1116.07 97.6637C1174.06 89.8334 1215.96 90.8485 1237.85 97.6458C1259.97 104.514 1276.07 103.496 1307.09 97.6596C1322.53 94.7556 1355.72 94.7518 1385.11 95.4812C1399.8 95.8456 1413.51 96.3921 1423.56 96.8476C1428.58 97.0754 1432.68 97.2804 1435.53 97.4284C1436.95 97.5024 1438.07 97.5622 1438.82 97.6034L1439 97.6133L1439.68 97.6509L1439.9 97.6632L1439.95 97.6664L1439.97 97.6672L1439.97 97.6674C1439.97 97.6674 1439.97 97.6674 1440 97.1682L1439.97 97.6674L1440.5 97.6976V97.1682V0V-0.5H1440H0Z" fill="#F2F2F2" stroke="#56CCF2"/>
</svg>


